<svg width="110" height="84" viewBox="0 0 110 84" fill="none" xmlns="http://www.w3.org/2000/svg">
<g clip-path="url(#clip0_32_95)">
<path d="M110 13.3155C110 11.8477 108.819 10.662 107.367 10.662H59.4436V2.65354C59.4436 1.18572 58.2621 0 56.8102 0H2.6334C1.18147 0 0 1.19051 0 2.65354V60.166C0 61.6338 1.18147 62.8195 2.6334 62.8195H53.4983V81.5999C53.4983 83.1298 54.898 84.2678 56.3831 83.9426L107.884 72.6926C109.117 72.4248 110 71.3204 110 70.0486V68.6573L109.867 68.6382C109.953 68.38 110 68.1027 110 67.8158V13.3155Z" fill="white"/>
<path d="M52.0748 5.74695H41.9398C41.693 5.74695 41.489 5.94776 41.489 6.20116V11.7234H37.5508C37.304 11.7234 37.1 11.9242 37.1 12.1776V20.3629C37.1 20.6115 37.2993 20.8171 37.5508 20.8171H41.489V24.6181H37.5508C37.304 24.6181 37.1 24.8189 37.1 25.0723V33.2577C37.1 33.5063 37.2993 33.7119 37.5508 33.7119H41.489V39.2341C41.489 39.4827 41.6883 39.6883 41.9398 39.6883H52.0748C52.3215 39.6883 52.5255 39.4875 52.5255 39.2341V6.20116C52.5255 5.95254 52.3262 5.74695 52.0748 5.74695Z" fill="#19A5E1"/>
<path d="M35.0455 6.69839H7.03661C6.78766 6.69839 6.58585 6.90175 6.58585 7.1526V16.5571C6.58585 16.808 6.78766 17.0113 7.03661 17.0113H35.0455C35.2944 17.0113 35.4963 16.808 35.4963 16.5571V7.1526C35.4963 6.90175 35.2944 6.69839 35.0455 6.69839Z" fill="#19A5E1"/>
<path d="M35.4963 36.4228V27.0135C35.4963 26.7649 35.297 26.5593 35.0455 26.5593H32.4263V19.8274C32.4263 19.5788 32.227 19.3732 31.9756 19.3732H23.5487C23.302 19.3732 23.0979 19.574 23.0979 19.8274V26.5593H18.9794V19.8274C18.9794 19.5788 18.7801 19.3732 18.5286 19.3732H10.1018C9.85505 19.3732 9.65102 19.574 9.65102 19.8274V26.5593H7.02712C6.78038 26.5593 6.57635 26.7601 6.57635 27.0135V36.4228C6.57635 36.6714 6.77564 36.877 7.02712 36.877H35.0407C35.2875 36.877 35.4915 36.6762 35.4915 36.4228H35.4963Z" fill="#19A5E1"/>
<path d="M52.0178 45.9755H20.5167C20.232 45.9755 19.9995 45.7413 19.9995 45.4544V40.1043C19.9995 39.8652 19.8098 39.674 19.5725 39.674H8.45057C8.21332 39.674 8.02353 39.8652 8.02353 40.1043V55.2701C8.02353 55.6717 8.34618 55.992 8.74 55.992H52.0178C52.2551 55.992 52.4449 55.8008 52.4449 55.5617V46.4011C52.4449 46.162 52.2551 45.9708 52.0178 45.9708V45.9755Z" fill="#19A5E1"/>
<path d="M103.604 16.8583H92.2447C91.9958 16.8583 91.794 17.0617 91.794 17.3125V64.5264C91.794 64.7772 91.9958 64.9806 92.2447 64.9806H103.604C103.853 64.9806 104.055 64.7772 104.055 64.5264V17.3125C104.055 17.0617 103.853 16.8583 103.604 16.8583Z" fill="#19A5E1"/>
<path d="M87.5805 17.5755H59.8943C59.6476 17.5755 59.4435 17.7763 59.4435 18.0297V26.7458C59.4435 26.9944 59.6428 27.2 59.8943 27.2H75.8845V35.9734H59.8943C59.6476 35.9734 59.4435 36.1742 59.4435 36.4276V44.938C59.4435 44.9858 59.4578 45.0337 59.472 45.0767V55.4087C59.4578 55.4518 59.4435 55.4996 59.4435 55.5474V64.2491C59.4435 64.4977 59.6428 64.7033 59.8943 64.7033H87.5805C87.8273 64.7033 88.0313 64.5025 88.0313 64.2491V55.5474C88.0313 55.2988 87.832 55.0932 87.5805 55.0932H71.6188V45.3922H87.5805C87.8273 45.3922 88.0313 45.1914 88.0313 44.938V18.0345C88.0313 17.7859 87.832 17.5803 87.5805 17.5803V17.5755Z" fill="#19A5E1"/>
</g>
<defs>
<clipPath id="clip0_32_95">
<rect width="110" height="84" fill="white"/>
</clipPath>
</defs>
</svg>
